<svg width="55" height="55" viewBox="0 0 55 55" fill="none" xmlns="http://www.w3.org/2000/svg">
<g clip-path="url(#clip0_3528_1755)">
<path d="M2.79297 2.79297H52.207V52.207H2.79297V2.79297Z" fill="#1F0740"/>
<path d="M0 0V55H55V0H0ZM52.207 52.207H2.79297V2.79297H52.207V52.207Z" fill="#D490C5"/>
<path d="M44.4727 25.4375C44.4727 25.4375 44.2148 19.1641 37.3828 19.1641C30.5078 19.1641 29.9492 28.6172 29.9492 28.6172V30.6367C29.9492 30.6367 31.1523 38.5 36.9531 38.5C42.7539 38.5 43.3125 37.3828 43.3125 37.3828V33.9023C43.3125 33.9023 35.0195 37.8555 34.2031 29.6055H44.5156V25.4375H44.4727ZM40.6055 26.4687H34.1602C34.1602 26.4687 34.1602 22.9023 37.3828 22.5156C40.9062 22.5156 40.6055 26.4687 40.6055 26.4687ZM21.6992 12.8477H16.5V14.4805L9.625 38.0703H13.6641L15.5547 31.1523H22.7734L24.707 38.0703H29.1328L21.6992 12.8477ZM16.4141 27.1133L19.1641 16.5859L21.9141 27.1133H16.4141Z" fill="#D490C5"/>
</g>
<defs>
<clipPath id="clip0_3528_1755">
<rect width="55" height="55" fill="white"/>
</clipPath>
</defs>
</svg>
