<svg width="35" height="37" viewBox="0 0 35 37" fill="none" xmlns="http://www.w3.org/2000/svg">
<path d="M19.1837 6.36481C19.6212 5.92738 20.2146 5.68164 20.8333 5.68164C21.452 5.68164 22.0454 5.92738 22.483 6.36481L32.983 16.8648C33.4204 17.3024 33.6662 17.8958 33.6662 18.5145C33.6662 19.1332 33.4204 19.7266 32.983 20.1641L22.483 30.6641C22.0429 31.0892 21.4535 31.3244 20.8417 31.319C20.2299 31.3137 19.6447 31.0683 19.2121 30.6357C18.7795 30.2031 18.5341 29.6179 18.5288 29.0061C18.5234 28.3943 18.7586 27.8049 19.1837 27.3648L25.5 20.8478H3.33333C2.71449 20.8478 2.121 20.602 1.68342 20.1644C1.24583 19.7268 1 19.1333 1 18.5145C1 17.8956 1.24583 17.3021 1.68342 16.8646C2.121 16.427 2.71449 16.1811 3.33333 16.1811H25.5L19.1837 9.66414C18.7462 9.22658 18.5005 8.63319 18.5005 8.01448C18.5005 7.39576 18.7462 6.80237 19.1837 6.36481Z" fill="black"/>
</svg>
