<svg width="80" height="80" viewBox="0 0 80 80" fill="none" xmlns="http://www.w3.org/2000/svg">
<path d="M14.8 14.8C15.7375 13.8636 17.0083 13.3377 18.3333 13.3377C19.6583 13.3377 20.9291 13.8636 21.8666 14.8L40 32.9266L58.1333 14.8C58.5973 14.336 59.1482 13.9679 59.7544 13.7168C60.3607 13.4657 61.0105 13.3364 61.6667 13.3364C62.3229 13.3364 62.9726 13.4657 63.5789 13.7168C64.1851 13.9679 64.736 14.336 65.2 14.8C65.664 15.264 66.0321 15.8148 66.2832 16.4211C66.5343 17.0273 66.6635 17.6771 66.6635 18.3333C66.6635 18.9895 66.5343 19.6393 66.2832 20.2455C66.0321 20.8518 65.664 21.4026 65.2 21.8666L47.0733 40L65.2 58.1333C66.1371 59.0704 66.6635 60.3414 66.6635 61.6667C66.6635 62.9919 66.1371 64.2629 65.2 65.2C64.2629 66.1371 62.9919 66.6635 61.6667 66.6635C60.3414 66.6635 59.0704 66.1371 58.1333 65.2L40 47.0733L21.8666 65.2C20.9295 66.1371 19.6586 66.6635 18.3333 66.6635C17.0081 66.6635 15.7371 66.1371 14.8 65.2C13.8629 64.2629 13.3364 62.9919 13.3364 61.6667C13.3364 60.3414 13.8629 59.0704 14.8 58.1333L32.9266 40L14.8 21.8666C13.8636 20.9291 13.3377 19.6583 13.3377 18.3333C13.3377 17.0083 13.8636 15.7375 14.8 14.8Z" fill="#E7E7E7"/>
</svg>
