<svg width="50" height="50" viewBox="0 0 50 50" fill="none" xmlns="http://www.w3.org/2000/svg">
<path d="M40.1563 14.5312L29.2188 3.59375C28.9063 3.28125 28.5938 3.125 28.125 3.125H12.5C10.7812 3.125 9.375 4.53125 9.375 6.25V43.75C9.375 45.4688 10.7812 46.875 12.5 46.875H37.5C39.2188 46.875 40.625 45.4688 40.625 43.75V15.625C40.625 15.1562 40.4688 14.8438 40.1563 14.5312ZM28.125 6.875L36.875 15.625H28.125V6.875ZM37.5 43.75H12.5V6.25H25V15.625C25 17.3438 26.4062 18.75 28.125 18.75H37.5V43.75Z" fill="black"/>
<path d="M15.625 34.375H34.375V37.5H15.625V34.375ZM15.625 25H34.375V28.125H15.625V25Z" fill="black"/>
</svg>
