<svg width="84" height="83" viewBox="0 0 84 83" fill="none" xmlns="http://www.w3.org/2000/svg">
<path d="M41.798 0.802734C36.3263 0.802734 30.9081 1.88047 25.8529 3.97442C20.7976 6.06837 16.2043 9.13751 12.3352 13.0066C4.52122 20.8206 0.131348 31.4187 0.131348 42.4694C0.131348 60.8861 12.0897 76.5111 28.6313 82.0527C30.7147 82.3861 31.3813 81.0944 31.3813 79.9694V72.9277C19.8397 75.4277 17.3813 67.3444 17.3813 67.3444C15.4647 62.5111 12.7563 61.2194 12.7563 61.2194C8.96468 58.6361 13.048 58.7194 13.048 58.7194C17.2147 59.0111 19.423 63.0111 19.423 63.0111C23.048 69.3444 29.173 67.4694 31.548 66.4694C31.923 63.7611 33.0064 61.9277 34.173 60.8861C24.923 59.8444 15.2147 56.2611 15.2147 40.3861C15.2147 35.7611 16.798 32.0527 19.5063 29.0944C19.0897 28.0527 17.6313 23.7194 19.923 18.0944C19.923 18.0944 23.423 16.9694 31.3813 22.3444C34.673 21.4277 38.2564 20.9694 41.798 20.9694C45.3397 20.9694 48.923 21.4277 52.2147 22.3444C60.173 16.9694 63.673 18.0944 63.673 18.0944C65.9647 23.7194 64.5064 28.0527 64.0897 29.0944C66.798 32.0527 68.3813 35.7611 68.3813 40.3861C68.3813 56.3027 58.6314 59.8027 49.3397 60.8444C50.8397 62.1361 52.2147 64.6777 52.2147 68.5527V79.9694C52.2147 81.0944 52.8814 82.4277 55.0064 82.0527C71.548 76.4694 83.4647 60.8861 83.4647 42.4694C83.4647 36.9977 82.3869 31.5795 80.293 26.5243C78.1991 21.469 75.1299 16.8757 71.2608 13.0066C67.3917 9.13751 62.7984 6.06837 57.7432 3.97442C52.6879 1.88047 47.2698 0.802734 41.798 0.802734Z" fill="#E7E7E7"/>
</svg>
