<svg width="91" height="91" viewBox="0 0 91 91" fill="none" xmlns="http://www.w3.org/2000/svg">
<path d="M80.0476 0.446289C82.7011 0.446289 85.2459 1.50038 87.1222 3.37669C88.9985 5.25299 90.0526 7.7978 90.0526 10.4513V80.4863C90.0526 83.1398 88.9985 85.6846 87.1222 87.5609C85.2459 89.4372 82.7011 90.4913 80.0476 90.4913H10.0126C7.35908 90.4913 4.81427 89.4372 2.93796 87.5609C1.06166 85.6846 0.00756836 83.1398 0.00756836 80.4863V10.4513C0.00756836 7.7978 1.06166 5.25299 2.93796 3.37669C4.81427 1.50038 7.35908 0.446289 10.0126 0.446289H80.0476ZM77.5463 77.985V51.4718C77.5463 47.1466 75.8281 42.9986 72.7698 39.9402C69.7114 36.8818 65.5634 35.1636 61.2382 35.1636C56.986 35.1636 52.0336 37.7649 49.6324 41.6669V36.1141H35.6754V77.985H49.6324V53.3227C49.6324 49.4708 52.7339 46.3192 56.5858 46.3192C58.4433 46.3192 60.2247 47.0571 61.5381 48.3705C62.8515 49.6839 63.5893 51.4653 63.5893 53.3227V77.985H77.5463ZM19.4173 28.2602C21.6462 28.2602 23.7838 27.3748 25.3599 25.7987C26.936 24.2226 27.8215 22.0849 27.8215 19.856C27.8215 15.2037 24.0696 11.4018 19.4173 11.4018C17.1751 11.4018 15.0247 12.2925 13.4392 13.8779C11.8538 15.4634 10.963 17.6138 10.963 19.856C10.963 24.5083 14.7649 28.2602 19.4173 28.2602ZM26.3707 77.985V36.1141H12.5138V77.985H26.3707Z" fill="#E7E7E7"/>
</svg>
