<svg width="50" height="50" viewBox="0 0 50 50" fill="none" xmlns="http://www.w3.org/2000/svg">
<path d="M8.33366 41.6667C7.18783 41.6667 6.20727 41.2591 5.39199 40.4438C4.57671 39.6285 4.16838 38.6473 4.16699 37.5V12.5C4.16699 11.3542 4.57533 10.3737 5.39199 9.55837C6.20866 8.7431 7.18921 8.33476 8.33366 8.33337H41.667C42.8128 8.33337 43.7941 8.74171 44.6107 9.55837C45.4274 10.375 45.8351 11.3556 45.8337 12.5V37.5C45.8337 38.6459 45.426 39.6271 44.6107 40.4438C43.7955 41.2605 42.8142 41.6681 41.667 41.6667H8.33366ZM25.0003 27.0834L41.667 16.6667V12.5L25.0003 22.9167L8.33366 12.5V16.6667L25.0003 27.0834Z" fill="black"/>
</svg>
