<svg width="50" height="50" viewBox="0 0 50 50" fill="none" xmlns="http://www.w3.org/2000/svg">
<path d="M40.0623 31.7917L34.7707 31.1875C34.1485 31.1145 33.5178 31.1834 32.926 31.389C32.3342 31.5947 31.7968 31.9318 31.354 32.375L27.5207 36.2084C21.6069 33.1999 16.8 28.393 13.7915 22.4792L17.6457 18.625C18.5415 17.7292 18.979 16.4792 18.8332 15.2084L18.229 9.95838C18.1113 8.9419 17.6237 8.00426 16.8591 7.3242C16.0945 6.64414 15.1064 6.26921 14.0832 6.27088H10.479C8.12484 6.27088 6.16651 8.22921 6.31234 10.5834C7.41651 28.375 21.6457 42.5834 39.4165 43.6875C41.7707 43.8334 43.729 41.875 43.729 39.5209V35.9167C43.7498 33.8125 42.1665 32.0417 40.0623 31.7917Z" fill="black"/>
</svg>
