<svg width="137" height="96" viewBox="0 0 137 96" fill="none" xmlns="http://www.w3.org/2000/svg">
<path d="M133.269 15.817C131.713 9.96319 127.127 5.35289 121.304 3.78832C110.75 0.945312 68.429 0.945312 68.429 0.945312C68.429 0.945312 26.1081 0.945312 15.5537 3.78832C9.73094 5.35314 5.14498 9.96319 3.58849 15.817C0.760498 26.4274 0.760498 48.5651 0.760498 48.5651C0.760498 48.5651 0.760498 70.7028 3.58849 81.3132C5.14498 87.167 9.73094 91.5852 15.5537 93.1498C26.1081 95.9928 68.429 95.9928 68.429 95.9928C68.429 95.9928 110.75 95.9928 121.304 93.1498C127.127 91.5852 131.713 87.167 133.269 81.3132C136.097 70.7028 136.097 48.5651 136.097 48.5651C136.097 48.5651 136.097 26.4274 133.269 15.817ZM54.5876 68.6644V28.4658L89.9596 48.5656L54.5876 68.6644Z" fill="#E7E7E7"/>
</svg>
